<svg version="1.1" id="Layer_1" xmlns="http://www.w3.org/2000/svg" xmlns:xlink="http://www.w3.org/1999/xlink" x="0px" y="0px"
	 width="100%" viewBox="0 0 224 225" enable-background="new 0 0 224 225" xml:space="preserve">
<path fill="#FFFFFF" opacity="1.000000" stroke="none" 
	d="
M225.000000,83.000000 
	C225.000000,131.000000 225.000000,178.500000 225.000000,226.000000 
	C150.333328,226.000000 75.666664,226.000000 1.000000,226.000000 
	C1.000000,151.000000 1.000000,76.000000 1.000000,1.000000 
	C75.666664,1.000000 150.333328,1.000000 225.000000,1.000000 
	C225.000000,28.166666 225.000000,55.333332 225.000000,83.000000 
M39.256927,45.013718 
	C38.504044,46.009182 37.751160,47.004650 36.998383,48.499184 
	C36.998383,48.499184 36.998646,48.998253 36.984245,49.492912 
	C36.984245,49.492912 36.974663,49.987686 36.277088,50.068527 
	C34.052910,51.925823 31.360535,53.441227 29.702429,55.711887 
	C26.295420,60.377548 23.148001,65.297653 20.529137,70.436813 
	C19.676949,72.109116 20.800188,74.788063 20.972439,77.602112 
	C20.650177,78.069382 20.327915,78.536652 19.305773,79.108582 
	C18.537310,80.739159 17.768847,82.369728 16.999079,84.829987 
	C16.314608,87.301399 15.473220,89.741447 14.972058,92.249489 
	C12.416014,105.041046 12.799583,117.924423 14.228883,130.783646 
	C14.467411,132.929657 16.047779,134.926514 17.516066,136.794312 
	C17.998632,136.543503 18.481199,136.292679 18.971861,136.684158 
	C18.974665,137.113403 18.977470,137.542664 18.550568,138.205368 
	C18.283854,138.412369 18.100920,138.677246 17.458366,139.464142 
	C17.373758,140.259842 16.947365,141.233978 17.255682,141.824524 
	C22.049223,151.005630 25.283808,160.397491 21.979683,170.896439 
	C19.438959,178.969681 17.215687,187.153488 14.369823,195.116058 
	C12.657069,199.908249 13.583657,207.100830 17.133533,209.757401 
	C18.678822,210.501892 20.214586,211.849716 21.771240,211.874298 
	C25.939266,211.940094 30.044926,212.601990 34.067501,209.558762 
	C36.216213,207.933197 40.381176,209.248230 43.481205,208.549026 
	C50.586639,206.946411 57.512188,204.078369 64.675011,203.358704 
	C69.639458,202.859909 74.907211,204.958450 79.982445,206.141098 
	C83.044785,206.854675 85.998024,208.036499 89.129715,209.733536 
	C91.756371,210.485489 94.383026,211.237442 97.807648,211.991821 
	C98.871613,211.991806 99.935577,211.991791 101.416924,212.517853 
	C102.611206,212.346832 103.805489,212.175827 105.935013,212.003891 
	C111.290123,212.004578 116.645226,212.005264 122.547707,212.579269 
	C124.641106,212.573898 126.802429,212.906387 128.815536,212.501648 
	C135.661499,211.125229 142.502213,209.660492 149.232376,207.818283 
	C150.725220,207.409637 151.757492,205.318344 153.691452,203.936081 
	C154.792908,203.622635 155.894348,203.309174 157.714340,202.877533 
	C161.539261,200.913055 165.493668,199.157349 169.136063,196.898544 
	C171.037918,195.719101 172.390839,193.654480 174.277832,191.416489 
	C175.179398,190.937988 176.080948,190.459503 177.728256,189.985855 
	C181.990738,189.033340 183.379883,185.820358 184.603134,181.713821 
	C186.405136,179.475891 188.207138,177.237961 190.749191,174.991287 
	C192.575073,173.712967 195.066269,172.827026 196.096832,171.079636 
	C198.744446,166.590439 200.744141,161.719101 203.203659,156.477844 
	C203.471146,155.988388 203.738617,155.498932 204.602173,154.927460 
	C204.920898,154.519287 205.239624,154.111130 205.558334,153.702957 
	C205.042252,153.466751 204.526184,153.230560 204.001404,152.998413 
	C204.001404,152.998413 204.001007,153.000000 203.999878,152.251694 
	C204.007568,151.505798 204.015259,150.759888 204.749420,149.993301 
	C207.558334,149.256866 208.830383,147.827393 207.001312,144.250305 
	C207.001068,143.501770 207.000839,142.753235 207.539474,141.629669 
	C208.026321,140.419785 208.513153,139.209885 209.649673,137.657715 
	C210.427765,134.099884 211.205856,130.542053 211.986618,126.237503 
	C211.985687,125.490639 211.984756,124.743767 212.584854,123.415504 
	C212.455124,114.311653 212.774933,105.170341 212.020599,96.118538 
	C211.594284,91.003052 209.401947,86.034737 208.559097,80.494308 
	C209.373474,74.852119 208.837357,73.873322 204.484940,73.781250 
	C203.995728,73.515015 203.506516,73.248779 203.003891,72.321587 
	C203.003464,71.881195 203.003036,71.440804 203.474304,70.672676 
	C203.314285,69.783310 203.154251,68.893944 202.946808,67.360390 
	C202.295853,66.573738 201.644897,65.787086 200.941238,64.348534 
	C200.292938,63.233395 199.644638,62.118256 198.910660,60.235397 
	C197.862534,56.217381 197.820557,51.446381 191.381546,50.692513 
	C187.714859,46.443115 184.171631,42.079105 180.355453,37.968498 
	C172.721420,29.745535 162.490814,25.383934 152.936523,20.053638 
	C152.328110,19.714214 150.997879,20.668615 149.496597,21.013481 
	C149.327667,21.012396 149.158752,21.011312 148.693634,20.330708 
	C145.873047,17.260925 130.080063,13.535792 125.326088,14.978916 
	C124.550827,14.652484 123.775566,14.326052 122.924843,13.402031 
	C122.517754,13.081936 122.110657,12.761840 121.703575,12.441747 
	C121.467239,12.958188 121.230911,13.474629 120.219841,14.081360 
	C118.155968,14.368997 116.092102,14.656634 113.996292,14.152914 
	C112.628365,8.741412 108.497879,11.130149 105.480553,11.445685 
	C100.616898,11.954304 95.778275,12.938126 91.019577,14.093836 
	C89.217796,14.531422 87.666962,16.002256 86.000000,17.000021 
	C86.000000,17.000021 86.002029,17.001928 85.103943,16.997301 
	C79.429291,16.378607 74.974144,18.581903 70.072960,21.534311 
	C63.825436,25.297741 56.600636,27.387939 51.255188,32.824646 
	C48.303219,35.827015 44.901260,38.385803 41.931301,41.372429 
	C41.172371,42.135616 41.284729,43.765224 40.498520,44.997585 
	C40.498520,44.997585 40.000103,44.997940 39.256927,45.013718 
z"/>
<path fill="#ECECEC" opacity="1.000000" stroke="none" 
	d="
M18.963764,136.041870 
	C18.481199,136.292679 17.998632,136.543503 17.260532,136.427368 
	C16.342485,130.457275 15.062316,124.842125 15.170987,119.253975 
	C15.312564,111.973755 16.411190,104.695625 17.378008,97.453987 
	C17.981617,92.932861 19.101631,88.480682 19.992983,83.581421 
	C19.999252,81.778160 20.002451,80.391037 20.005651,79.003922 
	C20.327915,78.536652 20.650177,78.069382 21.348511,77.245270 
	C22.709034,75.426170 23.842262,74.041374 24.651159,72.487717 
	C27.539345,66.940346 30.253384,61.301857 33.170677,55.770294 
	C34.241955,53.739010 35.695492,51.909328 36.974663,49.987686 
	C36.974663,49.987686 36.984245,49.492912 37.392872,49.246250 
	C38.871048,49.001232 39.940598,49.002880 40.974167,49.358337 
	C36.490650,57.342911 31.831623,64.859482 27.637352,72.626999 
	C17.277367,91.813019 17.239534,112.220947 20.728241,133.177216 
	C19.970911,134.246277 19.467339,135.144073 18.963764,136.041870 
z"/>
<path fill="#F0F0F0" opacity="1.000000" stroke="none" 
	d="
M89.000282,209.007935 
	C85.998024,208.036499 83.044785,206.854675 79.982445,206.141098 
	C74.907211,204.958450 69.639458,202.859909 64.675011,203.358704 
	C57.512188,204.078369 50.586639,206.946411 43.481205,208.549026 
	C40.381176,209.248230 36.216213,207.933197 34.067501,209.558762 
	C30.044926,212.601990 25.939266,211.940094 21.771240,211.874298 
	C20.214586,211.849716 18.678822,210.501892 17.086283,209.083771 
	C17.357643,207.941513 17.676252,207.472885 18.371937,207.003815 
	C19.502848,207.004791 20.256687,207.006226 21.056934,207.332169 
	C21.588642,207.986130 22.148268,208.671997 22.547493,208.588730 
	C25.777748,207.915085 28.974052,207.080688 32.187973,206.326248 
	C40.034641,204.484329 47.892651,202.689926 55.728260,200.802353 
	C57.409431,200.397369 58.984001,199.553024 60.663788,199.138321 
	C62.656868,198.646271 64.710609,198.399948 65.850319,198.201614 
	C70.178986,199.212601 74.082207,200.124237 78.059357,201.397064 
	C81.755608,203.506989 85.377937,205.255692 89.001465,207.338257 
	C89.001877,208.117401 89.001076,208.562668 89.000282,209.007935 
z"/>
<path fill="#F6F6F6" opacity="1.000000" stroke="none" 
	d="
M17.994865,207.004272 
	C17.676252,207.472885 17.357643,207.941513 17.016872,208.707916 
	C13.583657,207.100830 12.657069,199.908249 14.369823,195.116058 
	C17.215687,187.153488 19.438959,178.969681 21.979683,170.896439 
	C25.283808,160.397491 22.049223,151.005630 17.255682,141.824524 
	C16.947365,141.233978 17.373758,140.259842 17.980742,139.230240 
	C18.670244,138.994507 18.837370,138.992676 19.249172,139.159332 
	C19.667873,139.882736 19.841902,140.437637 20.031277,141.291809 
	C20.365850,142.060516 20.685076,142.529953 21.045748,143.375488 
	C22.226730,146.239426 23.590752,148.653091 24.443995,151.235519 
	C25.334759,153.931534 26.272894,156.797302 26.235538,159.576019 
	C26.157345,165.392715 25.451897,171.200958 25.001804,177.006348 
	C24.999561,177.000000 25.010336,177.007385 24.688927,177.165756 
	C19.832605,184.572968 19.732073,193.013687 17.999914,201.443268 
	C17.998430,203.581924 17.996649,205.293106 17.994865,207.004272 
z"/>
<path fill="#F2F2F2" opacity="1.000000" stroke="none" 
	d="
M202.994232,68.004578 
	C203.154251,68.893944 203.314285,69.783310 202.865417,70.836426 
	C201.511627,70.996162 200.766693,70.992142 199.974213,70.618233 
	C195.253693,58.169003 186.423630,49.346558 176.967133,40.641922 
	C172.188522,36.547474 167.562943,32.635002 162.664612,29.100531 
	C158.611328,26.175817 154.236053,23.697323 150.003448,21.021124 
	C150.997879,20.668615 152.328110,19.714214 152.936523,20.053638 
	C162.490814,25.383934 172.721420,29.745535 180.355453,37.968498 
	C184.171631,42.079105 187.714859,46.443115 191.694672,51.213020 
	C193.854126,54.720589 195.675201,57.724026 197.586044,60.669224 
	C197.776123,60.962200 198.513153,60.900303 198.996338,61.003113 
	C199.644638,62.118256 200.292938,63.233395 200.726517,64.862350 
	C201.339279,66.252304 202.166763,67.128441 202.994232,68.004578 
z"/>
<path fill="#F7F7F7" opacity="1.000000" stroke="none" 
	d="
M40.996780,44.996765 
	C41.284729,43.765224 41.172371,42.135616 41.931301,41.372429 
	C44.901260,38.385803 48.303219,35.827015 51.255188,32.824646 
	C56.600636,27.387939 63.825436,25.297741 70.072960,21.534311 
	C74.974144,18.581903 79.429291,16.378607 85.508652,17.363285 
	C83.608704,18.820946 81.304047,19.912622 78.622650,21.044666 
	C68.043739,24.192341 59.745270,30.519207 51.583054,37.020927 
	C50.410175,37.955196 49.851345,39.660336 49.004173,41.004440 
	C49.000000,41.000153 49.006802,41.011463 48.640965,41.008148 
	C45.851864,42.338261 43.428604,43.671688 41.002823,45.002708 
	C41.000305,45.000301 40.996780,44.996765 40.996780,44.996765 
z"/>
<path fill="#EBEBEB" opacity="1.000000" stroke="none" 
	d="
M78.999382,21.004299 
	C81.304047,19.912622 83.608704,18.820946 85.957703,17.365597 
	C86.002029,17.001928 86.000000,17.000021 86.421860,17.002068 
	C95.905220,16.317499 104.966721,15.630886 114.028229,14.944272 
	C116.092102,14.656634 118.155968,14.368997 120.941536,14.042032 
	C122.108925,14.001677 122.554611,14.000648 123.000305,13.999619 
	C123.775566,14.326052 124.550827,14.652484 125.745453,15.367025 
	C127.821815,16.170244 129.521912,16.464880 131.122604,17.037428 
	C132.477539,17.522072 133.717468,18.328323 134.786835,19.103077 
	C134.289108,19.416733 134.099564,19.681625 133.587860,19.998283 
	C117.080673,16.706528 101.087608,16.772549 85.215408,21.401770 
	C82.854012,22.090485 80.410500,22.497688 78.106689,22.770109 
	C78.472061,22.004827 78.735718,21.504562 78.999382,21.004299 
z"/>
<path fill="#E7E7E7" opacity="1.000000" stroke="none" 
	d="
M133.996750,20.008583 
	C134.099564,19.681625 134.289108,19.416733 135.210815,19.103634 
	C140.234131,19.665653 144.611969,20.337940 148.989822,21.010227 
	C149.158752,21.011312 149.327667,21.012396 149.750031,21.017303 
	C154.236053,23.697323 158.611328,26.175817 162.664612,29.100531 
	C167.562943,32.635002 172.188522,36.547474 176.960571,40.910431 
	C176.978989,41.703194 176.968979,41.881874 176.608841,42.013824 
	C171.876038,38.828129 167.815857,35.032200 163.042526,32.689121 
	C153.568542,28.038658 143.701401,24.189121 133.996750,20.008583 
z"/>
<path fill="#F6F6F6" opacity="1.000000" stroke="none" 
	d="
M19.989910,83.997559 
	C19.101631,88.480682 17.981617,92.932861 17.378008,97.453987 
	C16.411190,104.695625 15.312564,111.973755 15.170987,119.253975 
	C15.062316,124.842125 16.342485,130.457275 17.006550,136.526352 
	C16.047779,134.926514 14.467411,132.929657 14.228883,130.783646 
	C12.799583,117.924423 12.416014,105.041046 14.972058,92.249489 
	C15.473220,89.741447 16.314608,87.301399 17.373535,84.414993 
	C18.495298,83.999184 19.242605,83.998375 19.989910,83.997559 
z"/>
<path fill="#F8F8F8" opacity="1.000000" stroke="none" 
	d="
M36.625877,50.028107 
	C35.695492,51.909328 34.241955,53.739010 33.170677,55.770294 
	C30.253384,61.301857 27.539345,66.940346 24.651159,72.487717 
	C23.842262,74.041374 22.709034,75.426170 21.372248,76.947510 
	C20.800188,74.788063 19.676949,72.109116 20.529137,70.436813 
	C23.148001,65.297653 26.295420,60.377548 29.702429,55.711887 
	C31.360535,53.441227 34.052910,51.925823 36.625877,50.028107 
z"/>
<path fill="#F0F0F0" opacity="1.000000" stroke="none" 
	d="
M122.000336,212.005951 
	C116.645226,212.005264 111.290123,212.004578 105.258270,211.742126 
	C103.387527,211.650833 102.193535,211.821304 100.999542,211.991760 
	C99.935577,211.991791 98.871613,211.991806 97.374435,211.648041 
	C96.624748,210.209595 96.308281,209.114929 96.335754,207.866562 
	C97.306236,207.522049 97.943863,207.135025 98.557655,207.169693 
	C108.703171,207.742722 118.845688,208.368790 128.918015,209.357025 
	C126.564880,210.489380 124.282608,211.247665 122.000336,212.005951 
z"/>
<path fill="#F6F6F6" opacity="1.000000" stroke="none" 
	d="
M208.005081,81.000130 
	C209.401947,86.034737 211.594284,91.003052 212.020599,96.118538 
	C212.774933,105.170341 212.455124,114.311653 211.990448,123.410889 
	C211.263733,116.034416 211.233887,108.658066 210.911697,101.294510 
	C210.848114,99.841339 209.658783,98.437431 208.983795,96.680435 
	C208.974350,95.909851 208.969742,95.469627 208.977890,94.616409 
	C208.328186,92.468048 207.665726,90.732689 206.998627,89.000282 
	C206.993988,89.003235 206.982910,89.009132 206.988342,88.669983 
	C206.662750,87.553642 206.331711,86.776443 206.000885,85.582855 
	C206.001511,83.777374 206.001923,82.388275 206.336090,80.999161 
	C207.114929,80.999474 207.560013,80.999802 208.005081,81.000130 
z"/>
<path fill="#F8F8F8" opacity="1.000000" stroke="none" 
	d="
M122.274017,212.292603 
	C124.282608,211.247665 126.564880,210.489380 129.288910,209.351044 
	C130.471924,208.966934 131.213181,208.962891 132.334106,208.973251 
	C133.813049,208.334137 134.912292,207.680618 136.408081,207.018951 
	C137.862228,207.001373 138.919815,206.991928 140.350632,206.989319 
	C142.149811,206.325439 143.575775,205.654724 145.327637,204.979706 
	C146.087524,204.970001 146.521515,204.964630 147.338562,204.930786 
	C149.481705,204.602158 151.241776,204.301987 153.001831,204.001831 
	C151.757492,205.318344 150.725220,207.409637 149.232376,207.818283 
	C142.502213,209.660492 135.661499,211.125229 128.815536,212.501648 
	C126.802429,212.906387 124.641106,212.573898 122.274017,212.292603 
z"/>
<path fill="#F7F7F7" opacity="1.000000" stroke="none" 
	d="
M114.012260,14.548594 
	C104.966721,15.630886 95.905220,16.317499 86.422729,17.003117 
	C87.666962,16.002256 89.217796,14.531422 91.019577,14.093836 
	C95.778275,12.938126 100.616898,11.954304 105.480553,11.445685 
	C108.497879,11.130149 112.628365,8.741412 114.012260,14.548594 
z"/>
<path fill="#EBEBEB" opacity="1.000000" stroke="none" 
	d="
M208.988647,97.010803 
	C209.658783,98.437431 210.848114,99.841339 210.911697,101.294510 
	C211.233887,108.658066 211.263733,116.034416 211.689941,123.701591 
	C211.984756,124.743767 211.985687,125.490639 211.613037,126.615082 
	C210.493988,126.996025 209.748520,126.999390 208.990662,126.603004 
	C208.698776,124.913872 208.152740,123.618187 208.182999,122.336113 
	C208.382294,113.892708 208.705704,105.452232 208.988647,97.010803 
z"/>
<path fill="#F7F7F7" opacity="1.000000" stroke="none" 
	d="
M203.002808,157.000504 
	C200.744141,161.719101 198.744446,166.590439 196.096832,171.079636 
	C195.066269,172.827026 192.575073,173.712967 190.371536,174.995941 
	C189.993881,175.000610 189.979858,174.999634 190.123230,174.686646 
	C192.173965,170.912018 194.081329,167.450409 195.994141,163.660065 
	C196.006775,162.893005 196.013962,162.454681 196.366760,161.976257 
	C198.137878,160.289444 199.563416,158.642776 201.324570,156.997345 
	C202.107727,156.999222 202.555252,156.999863 203.002808,157.000504 
z"/>
<path fill="#F2F2F2" opacity="1.000000" stroke="none" 
	d="
M148.841736,20.670467 
	C144.611969,20.337940 140.234131,19.665653 135.432281,18.992809 
	C133.717468,18.328323 132.477539,17.522072 131.122604,17.037428 
	C129.521912,16.464880 127.821815,16.170244 126.082901,15.366634 
	C130.080063,13.535792 145.873047,17.260925 148.841736,20.670467 
z"/>
<path fill="#F8F8F8" opacity="1.000000" stroke="none" 
	d="
M173.991699,191.989670 
	C172.390839,193.654480 171.037918,195.719101 169.136063,196.898544 
	C165.493668,199.157349 161.539261,200.913055 157.390015,202.588470 
	C158.045547,200.552124 159.025391,198.804840 160.321548,196.905884 
	C161.754272,196.499069 162.870712,196.243927 164.361206,195.987976 
	C167.820755,194.654678 170.906235,193.322174 173.991699,191.989670 
z"/>
<path fill="#EDEDED" opacity="1.000000" stroke="none" 
	d="
M174.134766,191.703079 
	C170.906235,193.322174 167.820755,194.654678 164.400879,195.641800 
	C168.374954,192.193954 172.683456,189.091476 176.995239,186.388489 
	C176.993164,187.852341 176.987839,188.916672 176.982513,189.981018 
	C176.080948,190.459503 175.179398,190.937988 174.134766,191.703079 
z"/>
<path fill="#F0F0F0" opacity="1.000000" stroke="none" 
	d="
M160.005249,197.057556 
	C159.025391,198.804840 158.045547,200.552124 157.030762,202.647568 
	C155.894348,203.309174 154.792908,203.622635 153.346649,203.968964 
	C151.241776,204.301987 149.481705,204.602158 147.397980,204.607513 
	C147.728500,203.215286 148.382660,202.117859 149.417450,201.016190 
	C151.476654,200.260590 153.128815,199.441116 154.841278,198.777130 
	C156.530853,198.122040 158.281433,197.624313 160.005249,197.057556 
z"/>
<path fill="#EDEDED" opacity="1.000000" stroke="none" 
	d="
M190.001526,175.000336 
	C188.207138,177.237961 186.405136,179.475891 183.959595,181.890991 
	C181.874725,182.710266 180.433395,183.352386 178.996643,183.623657 
	C180.154724,181.621338 181.192291,179.889542 182.493515,178.385925 
	C183.860214,176.806702 185.479462,175.446060 187.282852,174.116379 
	C188.378189,174.495117 189.179031,174.747375 189.979858,174.999634 
	C189.979858,174.999634 189.993881,175.000610 190.001526,175.000336 
z"/>
<path fill="#F8F8F8" opacity="1.000000" stroke="none" 
	d="
M208.282089,80.747223 
	C207.560013,80.999802 207.114929,80.999474 206.011871,80.998535 
	C204.922318,80.994331 204.490753,80.990738 204.043076,80.572876 
	C204.004044,78.775986 203.981110,77.393372 204.210541,75.845703 
	C204.641937,75.119209 204.820969,74.557777 205.000000,73.996338 
	C208.837357,73.873322 209.373474,74.852119 208.282089,80.747223 
z"/>
<path fill="#F6F6F6" opacity="1.000000" stroke="none" 
	d="
M209.003052,127.002747 
	C209.748520,126.999390 210.493988,126.996025 211.611710,126.988441 
	C211.205856,130.542053 210.427765,134.099884 209.045456,137.579651 
	C208.622086,134.663742 208.802933,131.825882 208.990051,128.657288 
	C208.998550,127.885284 209.000809,127.444016 209.003052,127.002747 
z"/>
<path fill="#F7F7F7" opacity="1.000000" stroke="none" 
	d="
M178.992065,183.994507 
	C180.433395,183.352386 181.874725,182.710266 183.660767,182.037415 
	C183.379883,185.820358 181.990738,189.033340 177.355377,189.983429 
	C176.987839,188.916672 176.993164,187.852341 177.149170,186.145081 
	C177.863922,184.999603 178.427994,184.497055 178.992065,183.994507 
z"/>
<path fill="#F8F8F8" opacity="1.000000" stroke="none" 
	d="
M198.953491,60.619255 
	C198.513153,60.900303 197.776123,60.962200 197.586044,60.669224 
	C195.675201,57.724026 193.854126,54.720589 192.003601,51.366962 
	C197.820557,51.446381 197.862534,56.217381 198.953491,60.619255 
z"/>
<path fill="#F8F8F8" opacity="1.000000" stroke="none" 
	d="
M95.991814,208.020264 
	C96.308281,209.114929 96.624748,210.209595 96.975449,211.646820 
	C94.383026,211.237442 91.756371,210.485489 89.065002,209.370728 
	C89.001076,208.562668 89.001877,208.117401 89.375237,207.339691 
	C90.495361,207.011505 91.242912,207.015747 92.023758,207.311096 
	C92.704597,207.735428 93.352150,207.868622 94.331795,208.002213 
	C95.106529,208.008484 95.549171,208.014374 95.991814,208.020264 
z"/>
<path fill="#EBEBEB" opacity="1.000000" stroke="none" 
	d="
M208.983780,128.988037 
	C208.802933,131.825882 208.622086,134.663742 208.720612,137.750793 
	C208.513153,139.209885 208.026321,140.419785 207.264374,141.800552 
	C206.989273,141.971436 206.976654,141.939407 206.914932,141.598480 
	C203.975449,136.544693 206.399292,132.752411 208.983780,128.988037 
z"/>
<path fill="#EBEBEB" opacity="1.000000" stroke="none" 
	d="
M204.022934,150.013992 
	C204.015259,150.759888 204.007568,151.505798 203.625824,152.625275 
	C202.502609,153.000443 201.753433,153.002060 201.007233,152.623337 
	C202.330856,149.827408 203.651520,147.411835 204.982697,144.997620 
	C204.993225,144.998962 205.004074,144.999512 204.998840,145.369263 
	C204.670059,147.164017 204.346497,148.589005 204.022934,150.013992 
z"/>
<path fill="#E7E7E7" opacity="1.000000" stroke="none" 
	d="
M20.015930,140.992538 
	C19.841902,140.437637 19.667873,139.882736 19.245346,138.904602 
	C18.991322,138.311554 18.985798,138.141724 18.980276,137.971909 
	C18.977470,137.542664 18.974665,137.113403 18.967812,136.363007 
	C19.467339,135.144073 19.970911,134.246277 20.782433,133.571487 
	C21.403027,136.189285 21.715670,138.584091 22.019169,140.985611 
	C22.010025,140.992340 21.999695,141.000000 21.668961,140.999512 
	C20.897461,140.996841 20.456696,140.994690 20.015930,140.992538 
z"/>
<path fill="#F7F7F7" opacity="1.000000" stroke="none" 
	d="
M204.386169,150.003647 
	C204.346497,148.589005 204.670059,147.164017 205.331055,145.369537 
	C206.112793,144.999878 206.557053,144.999695 207.001328,144.999512 
	C208.830383,147.827393 207.558334,149.256866 204.386169,150.003647 
z"/>
<path fill="#F8F8F8" opacity="1.000000" stroke="none" 
	d="
M19.992981,83.581421 
	C19.242605,83.998375 18.495298,83.999184 17.374187,84.000153 
	C17.768847,82.369728 18.537310,80.739159 19.655712,79.056252 
	C20.002451,80.391037 19.999252,81.778160 19.992981,83.581421 
z"/>
<path fill="#ECECEC" opacity="1.000000" stroke="none" 
	d="
M200.021774,70.988129 
	C200.766693,70.992142 201.511627,70.996162 202.629578,71.000290 
	C203.003036,71.440804 203.003464,71.881195 203.004272,73.030876 
	C203.001068,74.496979 202.997482,75.253799 202.747253,76.011307 
	C202.500626,76.012009 202.007248,76.016479 201.729614,75.808167 
	C200.975250,74.062607 200.498505,72.525368 200.021774,70.988129 
z"/>
<path fill="#F6F6F6" opacity="1.000000" stroke="none" 
	d="
M201.004272,153.003662 
	C201.753433,153.002060 202.502609,153.000443 203.626389,152.999420 
	C204.001007,153.000000 204.001404,152.998413 204.002304,153.332230 
	C204.004166,154.113861 204.005142,154.561661 204.006104,155.009476 
	C203.738617,155.498932 203.471146,155.988388 203.103226,156.739166 
	C202.555252,156.999863 202.107727,156.999222 201.328644,156.598114 
	C200.999252,155.132812 201.001434,154.067963 201.001801,153.001556 
	C201.000000,153.000000 201.004272,153.003662 201.004272,153.003662 
z"/>
<path fill="#F7F7F7" opacity="1.000000" stroke="none" 
	d="
M41.010147,49.004524 
	C39.940598,49.002880 38.871048,49.001232 37.400070,48.998920 
	C36.998646,48.998253 36.998383,48.499184 37.279449,48.119347 
	C38.373711,46.825653 39.186909,45.911797 40.000103,44.997940 
	C40.000103,44.997940 40.498520,44.997585 40.747650,44.997177 
	C40.996780,44.996765 41.000305,45.000301 41.001816,45.402802 
	C41.004379,46.873131 41.005432,47.940960 41.003231,49.004890 
	C40.999981,49.000996 41.010147,49.004524 41.010147,49.004524 
z"/>
<path fill="#F8F8F8" opacity="1.000000" stroke="none" 
	d="
M101.208237,212.254807 
	C102.193535,211.821304 103.387527,211.650833 104.790649,211.742599 
	C103.805489,212.175827 102.611206,212.346832 101.208237,212.254807 
z"/>
<path fill="#F8F8F8" opacity="1.000000" stroke="none" 
	d="
M202.970520,67.682480 
	C202.166763,67.128441 201.339279,66.252304 200.752869,65.188301 
	C201.644897,65.787086 202.295853,66.573738 202.970520,67.682480 
z"/>
<path fill="#F8F8F8" opacity="1.000000" stroke="none" 
	d="
M39.628517,45.005829 
	C39.186909,45.911797 38.373711,46.825653 37.279396,47.869812 
	C37.751160,47.004650 38.504044,46.009182 39.628517,45.005829 
z"/>
<path fill="#F6F6F6" opacity="1.000000" stroke="none" 
	d="
M207.001312,144.624908 
	C206.557053,144.999695 206.112793,144.999878 205.336304,144.999786 
	C205.004074,144.999512 204.993225,144.998962 204.994324,144.642822 
	C205.655823,143.504242 206.316238,142.721817 206.976654,141.939407 
	C206.976654,141.939407 206.989273,141.971436 206.994934,141.988068 
	C207.000839,142.753235 207.001068,143.501770 207.001312,144.624908 
z"/>
<path fill="#F2F2F2" opacity="1.000000" stroke="none" 
	d="
M202.993896,76.010612 
	C202.997482,75.253799 203.001068,74.496979 203.010986,73.361359 
	C203.506516,73.248779 203.995728,73.515015 204.742462,73.888794 
	C204.820969,74.557777 204.641937,75.119209 203.969727,75.847519 
	C203.476532,76.014404 202.993896,76.010612 202.993896,76.010612 
z"/>
<path fill="#F7F7F7" opacity="1.000000" stroke="none" 
	d="
M122.962570,13.700825 
	C122.554611,14.000648 122.108925,14.001677 121.328903,13.996887 
	C121.230911,13.474629 121.467239,12.958188 121.703568,12.441746 
	C122.110657,12.761840 122.517754,13.081936 122.962570,13.700825 
z"/>
<path fill="#F7F7F7" opacity="1.000000" stroke="none" 
	d="
M204.304138,154.968475 
	C204.005142,154.561661 204.004166,154.113861 204.006653,153.330200 
	C204.526184,153.230560 205.042252,153.466751 205.558350,153.702972 
	C205.239624,154.111130 204.920898,154.519287 204.304138,154.968475 
z"/>
<path fill="#ECECEC" opacity="1.000000" stroke="none" 
	d="
M18.765423,138.088638 
	C18.985798,138.141724 18.991322,138.311554 19.000671,138.736115 
	C18.837370,138.992676 18.670244,138.994507 18.252441,138.998169 
	C18.100920,138.677246 18.283854,138.412369 18.765423,138.088638 
z"/>
<path fill="#FCFEFC" opacity="1.000000" stroke="none" 
	d="
M22.028313,140.978882 
	C21.715670,138.584091 21.403027,136.189285 21.036190,133.400208 
	C17.239534,112.220947 17.277367,91.813019 27.637352,72.626999 
	C31.831623,64.859482 36.490650,57.342911 40.974167,49.358337 
	C41.010147,49.004524 40.999981,49.000996 41.347370,48.970039 
	C44.132107,46.296543 46.569454,43.654003 49.006802,41.011463 
	C49.006802,41.011463 49.000000,41.000153 49.352539,40.969826 
	C56.443550,36.634422 63.174694,32.317802 69.924133,28.029985 
	C72.596809,26.332075 75.310158,24.698175 78.004982,23.035130 
	C80.410500,22.497688 82.854012,22.090485 85.215408,21.401770 
	C101.087608,16.772549 117.080673,16.706528 133.587860,19.998283 
	C143.701401,24.189121 153.568542,28.038658 163.042526,32.689121 
	C167.815857,35.032200 171.876038,38.828129 176.652954,42.352150 
	C187.202606,53.393364 195.213989,65.464920 201.031311,79.381805 
	C201.732330,82.164627 202.395035,84.575851 203.062592,87.284576 
	C203.370697,88.055588 203.673950,88.529099 203.994110,89.411354 
	C204.663513,93.230309 205.739044,96.620987 205.897461,100.053993 
	C206.715790,117.788376 205.638351,135.089920 197.460999,151.555542 
	C189.710938,167.160782 178.938248,179.837006 164.703705,189.557404 
	C158.435028,193.838104 151.532547,197.190704 144.510849,200.967804 
	C134.673340,202.636002 125.296745,204.784683 115.798653,205.843918 
	C103.905655,207.170258 92.487244,203.582153 80.915146,200.777756 
	C80.608208,200.283340 80.343414,200.106628 79.677727,200.015976 
	C78.897614,199.994003 78.451698,199.985931 77.780487,199.711731 
	C70.409309,194.891388 63.035961,193.705032 55.280949,197.911591 
	C55.016350,198.055099 54.613045,197.915237 54.299347,197.999908 
	C43.201221,200.995636 32.106079,204.002411 21.010525,207.007660 
	C20.256687,207.006226 19.502848,207.004791 18.371937,207.003815 
	C17.996649,205.293106 17.998430,203.581924 18.367908,201.372894 
	C20.827185,192.919144 22.918762,184.963257 25.010338,177.007385 
	C25.010336,177.007385 24.999561,177.000000 25.283772,176.781219 
	C27.320908,170.735229 30.981651,164.681000 30.322319,159.140884 
	C29.573277,152.847000 24.961128,147.012878 22.028313,140.978882 
M45.301788,71.923264 
	C45.141106,72.266579 44.980423,72.609886 44.315239,73.196716 
	C44.180405,73.719933 44.045567,74.243141 43.354454,75.200829 
	C38.972252,83.641014 35.752438,92.439018 34.911865,102.669411 
	C34.936966,103.111938 34.962067,103.554459 34.652607,104.675140 
	C34.596851,106.463257 34.541096,108.251366 34.286625,110.696991 
	C34.334087,111.148499 34.381554,111.599998 34.277790,112.501854 
	C34.277790,112.501854 34.476543,112.933342 34.335541,113.675217 
	C34.538597,115.407623 34.741657,117.140022 34.720146,119.253006 
	C34.828003,119.797050 34.935860,120.341087 35.135178,121.594887 
	C36.301182,126.697548 37.467186,131.800201 38.790825,137.677536 
	C41.329063,142.838531 43.867298,147.999527 46.690300,153.879105 
	C46.906837,155.550827 47.391953,157.240509 47.281708,158.890396 
	C47.077904,161.940552 46.525345,164.967407 45.793350,168.646820 
	C44.907734,170.765320 44.022118,172.883804 42.907986,175.555283 
	C42.889618,175.952118 42.871250,176.348969 42.290394,177.245712 
	C41.713623,179.684250 41.136852,182.122803 40.417721,185.163239 
	C44.425091,184.066177 47.725426,183.286957 50.928722,182.217148 
	C52.023510,181.851517 52.874783,180.756729 54.332829,179.500427 
	C59.890312,178.997940 65.447792,178.495453 71.502190,178.471420 
	C75.663940,180.298431 79.825684,182.125458 84.734207,184.041718 
	C91.831490,189.241516 100.506821,188.399811 108.491936,189.724838 
	C113.412872,190.541412 118.837433,189.060287 123.914841,188.020035 
	C131.148026,186.538116 138.319107,184.682220 145.408936,182.616180 
	C147.461716,182.017975 149.145248,180.152634 151.725891,178.996155 
	C161.457932,173.646820 169.820053,166.784546 176.260635,156.847321 
	C179.555023,150.245453 182.849411,143.643585 186.685715,136.530334 
	C187.451187,133.004929 188.216660,129.479538 189.339081,125.323647 
	C189.540909,123.878944 189.742752,122.434242 190.100693,120.335358 
	C190.064072,119.890358 190.027451,119.445351 190.189911,118.207626 
	C189.774979,111.228287 189.360046,104.248940 189.001099,96.451897 
	C188.008102,92.965744 187.015106,89.479599 186.014633,85.265770 
	C185.039505,83.131790 184.064377,80.997810 182.997498,78.960281 
	C182.997498,78.960281 183.119034,78.908188 183.031494,78.204544 
	C181.414368,75.436722 179.797256,72.668900 178.044373,69.351250 
	C177.514084,68.851227 176.983795,68.351196 176.306641,67.333603 
	C176.045517,66.877174 175.784393,66.420738 175.363495,65.273438 
	C173.855789,63.528278 172.348083,61.783115 170.593704,59.414482 
	C167.770584,57.273212 164.947479,55.131939 162.263824,52.260792 
	C161.045059,50.986378 159.986694,49.491249 158.583115,48.471142 
	C141.546585,36.089333 122.470352,31.379288 101.681381,34.111725 
	C87.477379,35.978653 74.710258,41.493114 63.133545,51.125542 
	C59.962273,54.706100 56.791000,58.286663 53.048069,62.162403 
	C51.716030,63.514214 50.383991,64.866020 48.643780,66.567673 
	C48.417156,67.042068 48.190536,67.516464 48.002720,67.999847 
	C48.002720,67.999847 47.981205,67.966301 47.494579,68.289513 
	C47.270908,68.816338 47.047234,69.343155 46.912216,69.968140 
	C46.912216,69.968140 46.877514,69.840508 46.319763,70.130363 
	C46.104153,70.707588 45.888546,71.284813 45.841316,71.916901 
	C45.841316,71.916901 45.847092,71.739906 45.301788,71.923264 
z"/>
<path fill="#DFDFDF" opacity="1.000000" stroke="none" 
	d="
M78.005791,199.977859 
	C78.451698,199.985931 78.897614,199.994003 79.787460,200.231354 
	C80.435715,200.727631 80.699905,200.905930 81.023979,200.995529 
	C92.487244,203.582153 103.905655,207.170258 115.798653,205.843918 
	C125.296745,204.784683 134.673340,202.636002 144.924057,200.980591 
	C146.841782,201.000336 147.939316,201.010391 149.036835,201.020416 
	C148.382660,202.117859 147.728500,203.215286 147.014908,204.635986 
	C146.521515,204.964630 146.087524,204.970001 145.100510,204.713623 
	C142.029678,203.499542 140.406097,204.162079 139.977417,206.982483 
	C138.919815,206.991928 137.862228,207.001373 136.031281,207.008240 
	C134.156754,207.656723 133.055603,208.307785 131.954437,208.958847 
	C131.213181,208.962891 130.471924,208.966934 129.359772,208.976974 
	C118.845688,208.368790 108.703171,207.742722 98.557655,207.169693 
	C97.943863,207.135025 97.306236,207.522049 96.335754,207.866562 
	C95.549171,208.014374 95.106529,208.008484 94.165901,207.754181 
	C93.108765,207.343842 92.549614,207.181915 91.990471,207.019989 
	C91.242912,207.015747 90.495361,207.011505 89.374039,207.005829 
	C85.377937,205.255692 81.755608,203.506989 78.065750,201.132385 
	C78.000755,200.330276 78.003273,200.154068 78.005791,199.977859 
z"/>
<path fill="#DEDEDE" opacity="1.000000" stroke="none" 
	d="
M77.780487,199.711731 
	C78.003273,200.154068 78.000755,200.330276 77.991829,200.771179 
	C74.082207,200.124237 70.178986,199.212601 65.850319,198.201614 
	C64.710609,198.399948 62.656868,198.646271 60.663788,199.138321 
	C58.984001,199.553024 57.409431,200.397369 55.728260,200.802353 
	C47.892651,202.689926 40.034641,204.484329 32.187973,206.326248 
	C28.974052,207.080688 25.777748,207.915085 22.547493,208.588730 
	C22.148268,208.671997 21.588642,207.986130 21.056934,207.332153 
	C32.106079,204.002411 43.201221,200.995636 54.299347,197.999908 
	C54.613045,197.915237 55.016350,198.055099 55.280949,197.911591 
	C63.035961,193.705032 70.409309,194.891388 77.780487,199.711731 
z"/>
<path fill="#E7E7E7" opacity="1.000000" stroke="none" 
	d="
M22.019169,140.985611 
	C24.961128,147.012878 29.573277,152.847000 30.322319,159.140884 
	C30.981651,164.681000 27.320908,170.735229 25.286015,176.787552 
	C25.451897,171.200958 26.157345,165.392715 26.235538,159.576019 
	C26.272894,156.797302 25.334759,153.931534 24.443995,151.235519 
	C23.590752,148.653091 22.226730,146.239426 21.290539,143.208374 
	C21.662489,142.110123 21.831091,141.555054 21.999695,141.000000 
	C21.999695,141.000000 22.010025,140.992340 22.019169,140.985611 
z"/>
<path fill="#EBEBEB" opacity="1.000000" stroke="none" 
	d="
M24.688929,177.165756 
	C22.918762,184.963257 20.827185,192.919144 18.367615,200.945404 
	C19.732073,193.013687 19.832605,184.572968 24.688929,177.165756 
z"/>
<path fill="#ECECEC" opacity="1.000000" stroke="none" 
	d="
M21.668961,140.999512 
	C21.831091,141.555054 21.662489,142.110123 21.249096,142.832275 
	C20.685076,142.529953 20.365850,142.060516 20.031277,141.291809 
	C20.456696,140.994690 20.897461,140.996841 21.668961,140.999512 
z"/>
<path fill="#E2E2E2" opacity="1.000000" stroke="none" 
	d="
M200.992981,79.010201 
	C195.213989,65.464920 187.202606,53.393364 177.003082,42.398880 
	C176.968979,41.881874 176.978989,41.703194 176.995560,41.256001 
	C186.423630,49.346558 195.253693,58.169003 199.974213,70.618233 
	C200.498505,72.525368 200.975250,74.062607 201.702942,76.126244 
	C201.633591,77.438492 201.313278,78.224350 200.992981,79.010201 
z"/>
<path fill="#ECECEC" opacity="1.000000" stroke="none" 
	d="
M78.106689,22.770111 
	C75.310158,24.698175 72.596809,26.332075 69.924133,28.029985 
	C63.174694,32.317802 56.443550,36.634422 49.356709,40.974117 
	C49.851345,39.660336 50.410175,37.955196 51.583054,37.020927 
	C59.745270,30.519207 68.043739,24.192341 78.622650,21.044664 
	C78.735718,21.504562 78.472061,22.004827 78.106689,22.770111 
z"/>
<path fill="#EDEDED" opacity="1.000000" stroke="none" 
	d="
M48.640965,41.008148 
	C46.569454,43.654003 44.132107,46.296543 41.350620,48.973934 
	C41.005432,47.940960 41.004379,46.873131 41.004337,45.405212 
	C43.428604,43.671688 45.851864,42.338261 48.640965,41.008148 
z"/>
<path fill="#DDDDDD" opacity="1.000000" stroke="none" 
	d="
M149.417465,201.016205 
	C147.939316,201.010391 146.841782,201.000336 145.331039,200.977478 
	C151.532547,197.190704 158.435028,193.838104 164.703705,189.557404 
	C178.938248,179.837006 189.710938,167.160782 197.460999,151.555542 
	C205.638351,135.089920 206.715790,117.788376 205.897461,100.053993 
	C205.739044,96.620987 204.663513,93.230309 204.370453,89.410576 
	C205.480881,89.003746 206.231903,89.006439 206.982910,89.009132 
	C206.982910,89.009132 206.993988,89.003235 206.995026,89.410271 
	C207.652420,91.554672 208.308777,93.292038 208.965134,95.029404 
	C208.969742,95.469627 208.974350,95.909851 208.983795,96.680435 
	C208.705704,105.452232 208.382294,113.892708 208.182999,122.336113 
	C208.152740,123.618187 208.698776,124.913872 208.990662,126.603004 
	C209.000809,127.444016 208.998550,127.885284 208.990051,128.657288 
	C206.399292,132.752411 203.975449,136.544693 206.914932,141.598480 
	C206.316238,142.721817 205.655823,143.504242 204.983795,144.641464 
	C203.651520,147.411835 202.330856,149.827408 201.007233,152.623322 
	C201.004272,153.003662 201.000000,153.000000 200.690338,153.154236 
	C198.927505,156.211090 197.474335,159.113739 196.021149,162.016373 
	C196.013962,162.454681 196.006775,162.893005 195.641586,163.699921 
	C192.518509,167.375656 189.753433,170.682770 186.988342,173.989883 
	C185.479462,175.446060 183.860214,176.806702 182.493515,178.385925 
	C181.192291,179.889542 180.154724,181.621338 178.996643,183.623657 
	C178.427994,184.497055 177.863922,184.999603 177.145905,185.745560 
	C172.683456,189.091476 168.374954,192.193954 164.026794,195.642609 
	C162.870712,196.243927 161.754272,196.499069 160.321548,196.905884 
	C158.281433,197.624313 156.530853,198.122040 154.841278,198.777130 
	C153.128815,199.441116 151.476654,200.260590 149.417465,201.016205 
z"/>
<path fill="#EBEBEB" opacity="1.000000" stroke="none" 
	d="
M208.977890,94.616409 
	C208.308777,93.292038 207.652420,91.554672 206.999664,89.407318 
	C207.665726,90.732689 208.328186,92.468048 208.977890,94.616409 
z"/>
<path fill="#E2E2E2" opacity="1.000000" stroke="none" 
	d="
M206.988342,88.669983 
	C206.231903,89.006439 205.480881,89.003746 204.353531,89.001831 
	C203.673950,88.529099 203.370697,88.055588 203.352554,87.266754 
	C204.092178,86.633888 204.546692,86.316338 205.251068,85.999542 
	C205.500946,86.000305 206.000687,85.999245 206.000687,85.999245 
	C206.331711,86.776443 206.662750,87.553642 206.988342,88.669983 
z"/>
<path fill="#ECECEC" opacity="1.000000" stroke="none" 
	d="
M206.000885,85.582855 
	C206.000687,85.999245 205.500946,86.000305 205.248978,85.667084 
	C204.684402,83.884956 204.371780,82.436058 204.059174,80.987152 
	C204.490753,80.990738 204.922318,80.994331 205.678116,80.998550 
	C206.001923,82.388275 206.001511,83.777374 206.000885,85.582855 
z"/>
<path fill="#F0F0F0" opacity="1.000000" stroke="none" 
	d="
M140.350632,206.989319 
	C140.406097,204.162079 142.029678,203.499542 144.774597,204.717941 
	C143.575775,205.654724 142.149811,206.325439 140.350632,206.989319 
z"/>
<path fill="#F0F0F0" opacity="1.000000" stroke="none" 
	d="
M132.334106,208.973251 
	C133.055603,208.307785 134.156754,207.656723 135.634735,207.016373 
	C134.912292,207.680618 133.813049,208.334137 132.334106,208.973251 
z"/>
<path fill="#EBEBEB" opacity="1.000000" stroke="none" 
	d="
M187.282852,174.116379 
	C189.753433,170.682770 192.518509,167.375656 195.636139,164.028671 
	C194.081329,167.450409 192.173965,170.912018 190.123230,174.686646 
	C189.179031,174.747375 188.378189,174.495117 187.282852,174.116379 
z"/>
<path fill="#EBEBEB" opacity="1.000000" stroke="none" 
	d="
M196.366760,161.976257 
	C197.474335,159.113739 198.927505,156.211090 200.692139,153.155792 
	C201.001434,154.067963 200.999252,155.132812 200.993011,156.596878 
	C199.563416,158.642776 198.137878,160.289444 196.366760,161.976257 
z"/>
<path fill="#DDDDDD" opacity="1.000000" stroke="none" 
	d="
M204.043076,80.572876 
	C204.371780,82.436058 204.684402,83.884956 204.999115,85.666321 
	C204.546692,86.316338 204.092178,86.633888 203.347702,86.969254 
	C202.395035,84.575851 201.732330,82.164627 201.031311,79.381805 
	C201.313278,78.224350 201.633591,77.438492 201.980560,76.334564 
	C202.007248,76.016479 202.500626,76.012009 202.747253,76.011307 
	C202.993896,76.010612 203.476532,76.014404 203.717361,76.012581 
	C203.981110,77.393372 204.004044,78.775986 204.043076,80.572876 
z"/>
<path fill="#F0F0F0" opacity="1.000000" stroke="none" 
	d="
M92.023758,207.311127 
	C92.549614,207.181915 93.108765,207.343842 93.833809,207.753799 
	C93.352150,207.868622 92.704597,207.735428 92.023758,207.311127 
z"/>
<path fill="#57D063" opacity="1.000000" stroke="none" 
	d="
M63.737526,50.872196 
	C74.710258,41.493114 87.477379,35.978653 101.681381,34.111725 
	C122.470352,31.379288 141.546585,36.089333 158.583115,48.471142 
	C159.986694,49.491249 161.045059,50.986378 161.759186,52.629322 
	C156.492630,52.998466 151.730713,52.999580 146.968796,52.999615 
	C121.693199,52.999790 96.417244,53.058533 71.142555,52.906837 
	C68.670235,52.892002 66.205681,51.581364 63.737526,50.872196 
M154.796356,49.390560 
	C154.792084,49.785870 154.787811,50.181175 154.783539,50.576485 
	C154.947540,50.578022 155.254074,50.590569 155.254944,50.579506 
	C155.285324,50.186054 155.287064,49.790394 154.796356,49.390560 
z"/>
<path fill="#2AB740" opacity="1.000000" stroke="none" 
	d="
M46.118065,168.003967 
	C46.525345,164.967407 47.077904,161.940552 47.281708,158.890396 
	C47.391953,157.240509 46.906837,155.550827 47.046074,153.475983 
	C50.538307,152.903946 53.673637,152.616867 56.811428,152.586823 
	C69.723053,152.463150 82.635712,152.445831 95.547272,152.317734 
	C97.928268,152.294113 100.305984,151.938477 103.232246,151.689545 
	C102.091965,149.289429 101.548592,148.145721 101.307114,146.871201 
	C102.656059,146.521667 103.703117,146.302933 104.847710,146.076324 
	C104.945244,146.068436 104.948326,146.264114 105.102112,146.440506 
	C105.503540,146.825821 105.788963,146.941711 106.466621,147.001526 
	C118.050957,152.255188 129.229950,157.635269 142.259216,158.188965 
	C145.850708,159.288879 149.158051,160.186279 152.659897,161.136475 
	C152.972626,157.684097 153.162369,155.589325 153.422287,152.720032 
	C158.028015,153.281708 162.278824,153.572983 166.402252,154.457901 
	C167.473068,154.687683 168.145691,156.772949 169.001236,158.379791 
	C169.001846,159.501694 169.002441,160.249756 169.001511,160.998901 
	C169.000000,161.000000 168.997849,161.002884 168.558685,161.002472 
	C165.747482,162.005356 161.504349,158.563049 160.529633,163.999634 
	C122.918411,163.999878 85.775742,163.999878 48.257092,163.999878 
	C48.308830,165.163483 48.379917,166.762192 48.451202,168.365356 
	C47.423889,168.206238 46.770977,168.105103 46.118065,168.003967 
z"/>
<path fill="#26B53D" opacity="1.000000" stroke="none" 
	d="
M45.955704,168.325409 
	C46.770977,168.105103 47.423889,168.206238 48.451202,168.365356 
	C48.379917,166.762192 48.308830,165.163483 48.257092,163.999878 
	C85.775742,163.999878 122.918411,163.999878 160.845276,164.002594 
	C162.069107,164.132690 162.508743,164.260071 162.948364,164.387451 
	C161.919281,166.154068 160.890213,167.920700 159.756622,169.866760 
	C157.722488,169.866760 155.499207,169.866760 153.291443,169.866760 
	C153.187622,171.698654 153.093933,173.351669 152.531586,175.003143 
	C130.459106,175.001053 108.853058,175.170074 87.253090,174.882568 
	C81.752357,174.809341 76.276962,173.244614 70.776001,172.463272 
	C69.525368,172.285614 68.193489,172.374557 66.939224,172.582916 
	C62.426327,173.332611 57.912838,174.100723 53.436077,175.036514 
	C51.250389,175.493408 49.145241,176.335602 47.001709,177.001709 
	C46.999775,177.000000 46.995579,176.996979 46.845497,176.697403 
	C45.509113,175.932648 44.322803,175.467484 43.136497,175.002304 
	C44.022118,172.883804 44.907734,170.765320 45.955704,168.325409 
z"/>
<path fill="#43C553" opacity="1.000000" stroke="none" 
	d="
M186.022110,85.993446 
	C187.015106,89.479599 188.008102,92.965744 188.995941,97.204796 
	C188.967972,98.652466 188.945175,99.347237 188.603561,100.027054 
	C187.857727,100.010307 187.430695,100.008507 186.757996,99.828377 
	C186.056534,99.072296 185.485077,97.937943 185.163223,98.004837 
	C182.578629,98.541893 180.044708,99.893341 177.488693,99.908867 
	C152.575531,100.060303 127.661034,99.978226 102.747093,100.035622 
	C100.405449,100.041016 98.064957,100.545143 95.466400,100.847694 
	C95.225166,99.895622 94.945969,98.793701 94.634766,97.771019 
	C94.602760,97.850258 94.633606,97.681625 95.029343,97.735809 
	C95.900131,96.469841 96.375175,95.149704 96.839935,93.881073 
	C96.829643,93.932594 96.769608,93.846367 97.081909,93.865074 
	C97.792740,93.533363 98.191277,93.182953 98.589806,92.832535 
	C98.093559,92.556343 97.597313,92.280159 96.983765,91.675194 
	C96.524849,90.244499 96.183235,89.142586 96.301407,88.028488 
	C100.873703,88.344193 104.984993,88.936523 109.098938,88.955467 
	C130.043381,89.051910 150.988556,89.015953 171.933350,88.971550 
	C173.728485,88.967751 175.869980,89.111328 177.249817,88.237633 
	C180.836212,85.966743 183.271286,85.817116 184.454102,90.516212 
	C184.466187,90.564224 185.032837,90.472649 185.235229,90.455276 
	C185.502319,88.940834 185.762222,87.467140 186.022110,85.993446 
z"/>
<path fill="#51CE5E" opacity="1.000000" stroke="none" 
	d="
M63.435535,50.998871 
	C66.205681,51.581364 68.670235,52.892002 71.142555,52.906837 
	C96.417244,53.058533 121.693199,52.999790 146.968796,52.999615 
	C151.730713,52.999580 156.492630,52.998466 161.689453,52.994259 
	C164.947479,55.131939 167.770584,57.273212 170.391418,59.915474 
	C168.681137,60.944153 167.173660,61.930710 165.665100,61.932388 
	C128.316711,61.973957 90.968208,61.911324 53.619728,61.867226 
	C56.791000,58.286663 59.962273,54.706100 63.435535,50.998871 
z"/>
<path fill="#47C857" opacity="1.000000" stroke="none" 
	d="
M186.018372,85.629608 
	C185.762222,87.467140 185.502319,88.940834 185.235229,90.455276 
	C185.032837,90.472649 184.466187,90.564224 184.454102,90.516212 
	C183.271286,85.817116 180.836212,85.966743 177.249817,88.237633 
	C175.869980,89.111328 173.728485,88.967751 171.933350,88.971550 
	C150.988556,89.015953 130.043381,89.051910 109.098938,88.955467 
	C104.984993,88.936523 100.873703,88.344193 96.045776,87.759354 
	C94.862137,85.343285 94.393898,83.184181 94.202942,80.821014 
	C95.527634,79.664879 96.571884,77.886604 97.622925,77.882591 
	C119.180214,77.800217 140.738449,77.891251 162.296066,78.019272 
	C168.080078,78.053627 173.862671,78.323395 179.989105,78.494690 
	C179.500504,77.486687 178.538177,76.133789 178.206833,74.640854 
	C177.872223,73.133217 178.163208,71.486732 178.180130,69.901077 
	C179.797256,72.668900 181.414368,75.436722 182.780060,78.613419 
	C182.200317,79.426186 181.869293,79.828041 181.559006,80.245331 
	C181.551025,80.256058 181.770447,80.435883 181.883820,80.536850 
	C182.285629,79.979187 182.687439,79.421516 183.089249,78.863846 
	C184.064377,80.997810 185.039505,83.131790 186.018372,85.629608 
z"/>
<path fill="#22B239" opacity="1.000000" stroke="none" 
	d="
M47.003639,177.003387 
	C49.145241,176.335602 51.250389,175.493408 53.436077,175.036514 
	C57.912838,174.100723 62.426327,173.332611 66.939224,172.582916 
	C68.193489,172.374557 69.525368,172.285614 70.776001,172.463272 
	C76.276962,173.244614 81.752357,174.809341 87.253090,174.882568 
	C108.853058,175.170074 130.459106,175.001053 152.488144,175.324036 
	C152.274948,176.720398 151.636505,177.794296 150.998062,178.868195 
	C149.145248,180.152634 147.461716,182.017975 145.408936,182.616180 
	C138.319107,184.682220 131.148026,186.538116 123.914841,188.020035 
	C118.837433,189.060287 113.412872,190.541412 108.491936,189.724838 
	C100.506821,188.399811 91.831490,189.241516 84.339691,183.685806 
	C83.266632,181.133133 86.729897,177.017105 81.245132,177.077454 
	C77.828911,177.115036 74.418373,177.670135 71.005280,177.992981 
	C65.447792,178.495453 59.890312,178.997940 53.702377,179.745819 
	C51.049168,178.995270 49.026402,177.999329 47.003639,177.003387 
z"/>
<path fill="#4DCC5C" opacity="1.000000" stroke="none" 
	d="
M53.333900,62.014816 
	C90.968208,61.911324 128.316711,61.973957 165.665100,61.932388 
	C167.173660,61.930710 168.681137,60.944153 170.514755,60.227211 
	C172.348083,61.783115 173.855789,63.528278 175.062653,65.634293 
	C174.509903,66.001091 174.258011,66.007027 173.651825,66.014984 
	C172.594711,66.637909 171.891891,67.258812 171.189056,67.879715 
	C172.127869,67.916527 173.066681,67.953346 174.254120,67.992950 
	C174.502747,67.995743 175.000000,68.002541 174.940109,68.362762 
	C172.254395,73.105431 168.496460,69.837753 165.401733,69.870171 
	C142.500153,70.110069 119.594360,70.076500 96.691414,69.914703 
	C93.388008,69.891365 90.092690,68.722511 86.353508,68.073082 
	C82.941521,68.007866 79.969650,67.953339 76.950615,67.544357 
	C73.440170,62.734009 70.670563,66.881821 67.626617,67.910065 
	C65.386833,68.666679 62.905190,70.199684 60.878681,69.765488 
	C57.333542,69.005913 54.133759,67.214539 51.028961,70.726181 
	C50.706089,71.091362 49.040020,70.268951 47.998562,69.998779 
	C47.999950,70.000000 47.997177,69.997284 48.164833,69.909615 
	C48.220978,69.548569 48.109463,69.275192 47.989029,68.743011 
	C47.980476,68.311569 47.980843,68.138931 47.981205,67.966301 
	C47.981205,67.966301 48.002720,67.999847 48.218109,67.853867 
	C48.639648,67.211205 48.845798,66.714516 49.051949,66.217834 
	C50.383991,64.866020 51.716030,63.514214 53.333900,62.014816 
z"/>
<path fill="#35BD48" opacity="1.000000" stroke="none" 
	d="
M34.944717,118.872429 
	C34.741657,117.140022 34.538597,115.407623 34.511322,113.211090 
	C34.803959,112.447449 34.717930,112.215637 34.429020,112.051506 
	C34.381554,111.599998 34.334087,111.148499 34.737595,110.363548 
	C36.791756,111.021393 38.394955,112.012688 39.998043,113.420029 
	C39.998402,115.223564 39.998867,116.611046 39.662125,118.057610 
	C39.020016,119.161949 38.715122,120.207222 38.410225,121.252487 
	C39.272877,121.164665 40.135532,121.076843 41.052429,121.382515 
	C41.754158,122.457787 42.408913,123.737244 43.048016,123.729485 
	C49.936779,123.645721 56.901318,123.903587 63.681416,122.929016 
	C67.913116,122.320747 71.730965,120.489700 74.353416,125.535538 
	C75.765877,123.779800 76.891449,122.380676 78.308578,121.145630 
	C81.435387,124.790100 84.270630,128.270508 86.968811,132.062134 
	C85.534294,133.323593 84.236832,134.273819 82.939377,135.224030 
	C83.260521,135.707535 83.581673,136.191040 83.902824,136.674545 
	C86.093880,136.178635 88.284935,135.682724 90.548248,135.260452 
	C90.620514,135.334091 90.757286,135.488617 90.516830,135.840790 
	C90.184601,136.462067 90.092827,136.731140 89.805496,137.346344 
	C88.416504,138.127762 87.226189,138.930923 86.029137,138.941071 
	C74.882324,139.035522 63.734352,138.993591 52.586716,138.991409 
	C50.108620,138.990921 47.630527,138.991333 45.664970,138.991333 
	C43.074780,138.222031 40.853985,137.562454 38.633190,136.902863 
	C37.467186,131.800201 36.301182,126.697548 35.097412,120.903976 
	C35.021339,119.766182 34.983028,119.319305 34.944717,118.872429 
M37.297062,115.432625 
	C37.012600,115.704430 36.725479,115.973770 36.458710,116.261963 
	C36.451897,116.269325 36.668610,116.483604 36.781082,116.601379 
	C37.065472,116.329384 37.349861,116.057381 37.297062,115.432625 
z"/>
<path fill="#43C553" opacity="1.000000" stroke="none" 
	d="
M39.998150,113.003975 
	C38.394955,112.012688 36.791756,111.021393 34.836948,110.034790 
	C34.541096,108.251366 34.596851,106.463257 34.870155,104.595123 
	C35.137993,104.657021 35.155930,104.827194 35.248001,104.932602 
	C35.333412,105.030365 35.498009,105.058945 35.627731,105.117996 
	C35.450741,104.087440 35.273750,103.056892 35.096760,102.026337 
	C35.752438,92.439018 38.972252,83.641014 43.682854,75.357246 
	C46.713791,78.822937 48.085781,83.680084 54.188866,82.547127 
	C58.198933,81.802711 62.982597,85.211807 66.163055,80.534187 
	C65.687057,82.913078 65.242867,84.949432 64.498123,86.989563 
	C63.796108,86.995201 63.394665,86.997078 62.650143,86.945549 
	C61.031414,86.382210 58.878578,85.147606 58.611504,85.470894 
	C54.510246,90.435287 48.929550,88.585434 43.840267,89.143440 
	C42.804272,89.257034 41.080002,91.204849 41.216320,92.061523 
	C41.439522,93.464211 42.835884,95.678558 43.899624,95.775780 
	C48.428314,96.189667 53.016579,95.951698 57.894657,95.951698 
	C57.662895,93.305260 57.499718,91.442009 57.285919,89.000702 
	C59.435360,89.000702 61.214447,89.000702 63.256821,89.003853 
	C63.869999,89.014191 64.219887,89.021385 64.612167,89.467758 
	C66.071877,95.610695 67.489189,101.314445 68.761963,107.159821 
	C68.885895,107.493980 69.154373,107.686531 69.649811,108.082123 
	C70.517792,109.537834 71.158806,110.790504 71.517052,112.180603 
	C70.606323,112.447098 69.909096,112.819916 69.362007,112.664429 
	C66.495354,111.849754 63.711967,110.360764 60.814957,110.118378 
	C55.717903,109.691940 50.538750,109.735527 45.437588,110.136742 
	C43.560879,110.284348 41.807682,112.002296 39.998150,113.003975 
M39.568146,101.296341 
	C39.295479,101.010666 39.022816,100.724998 38.750149,100.439323 
	C38.631924,100.552383 38.404686,100.757515 38.411194,100.765221 
	C38.665680,101.066528 38.941460,101.349846 39.568146,101.296341 
z"/>
<path fill="#30BA44" opacity="1.000000" stroke="none" 
	d="
M38.712006,137.290192 
	C40.853985,137.562454 43.074780,138.222031 45.664970,138.991333 
	C47.630527,138.991333 50.108620,138.990921 52.586716,138.991409 
	C63.734352,138.993591 74.882324,139.035522 86.029137,138.941071 
	C87.226189,138.930923 88.416504,138.127762 90.050880,137.513977 
	C90.662094,137.891479 90.832367,138.447449 91.043144,139.322723 
	C91.718391,140.091522 92.353134,140.541046 92.999718,141.365631 
	C95.676125,143.494476 98.340675,145.248245 101.005226,147.001999 
	C101.548592,148.145721 102.091965,149.289429 103.232246,151.689545 
	C100.305984,151.938477 97.928268,152.294113 95.547272,152.317734 
	C82.635712,152.445831 69.723053,152.463150 56.811428,152.586823 
	C53.673637,152.616867 50.538307,152.903946 46.903694,153.116684 
	C43.867298,147.999527 41.329063,142.838531 38.712006,137.290192 
z"/>
<path fill="#4BCA5A" opacity="1.000000" stroke="none" 
	d="
M86.793633,68.083771 
	C90.092690,68.722511 93.388008,69.891365 96.691414,69.914703 
	C119.594360,70.076500 142.500153,70.110069 165.401733,69.870171 
	C168.496460,69.837753 172.254395,73.105431 175.304047,68.330322 
	C175.969742,67.908844 176.211624,67.880005 176.453491,67.851166 
	C176.983795,68.351196 177.514084,68.851227 178.112244,69.626160 
	C178.163208,71.486732 177.872223,73.133217 178.206833,74.640854 
	C178.538177,76.133789 179.500504,77.486687 179.989105,78.494690 
	C173.862671,78.323395 168.080078,78.053627 162.296066,78.019272 
	C140.738449,77.891251 119.180214,77.800217 97.622925,77.882591 
	C96.571884,77.886604 95.527634,79.664879 93.852127,80.744835 
	C91.080566,76.609734 88.937103,72.346756 86.793633,68.083771 
z"/>
<path fill="#2FB944" opacity="1.000000" stroke="none" 
	d="
M169.001221,158.005951 
	C168.145691,156.772949 167.473068,154.687683 166.402252,154.457901 
	C162.278824,153.572983 158.028015,153.281708 153.422287,152.720032 
	C153.162369,155.589325 152.972626,157.684097 152.659897,161.136475 
	C149.158051,160.186279 145.850708,159.288879 142.465393,157.912994 
	C144.248901,156.533447 146.108841,155.629166 147.972107,154.731766 
	C157.688416,150.052155 161.071075,143.841156 159.970306,133.505798 
	C160.561584,134.566910 160.677841,135.544434 161.014954,136.438705 
	C161.806290,138.537949 162.558441,142.290207 163.582718,142.377838 
	C167.856613,142.743423 174.151093,143.626984 176.117874,141.295227 
	C179.246384,137.586136 182.037003,136.694077 186.143799,137.041718 
	C182.849411,143.643585 179.555023,150.245453 175.549500,156.974426 
	C174.225845,157.066284 173.613312,157.031036 172.911835,156.828293 
	C172.549118,156.774277 172.275345,156.887756 171.890289,157.262543 
	C170.853073,157.684555 169.927139,157.845245 169.001221,158.005951 
M181.568649,139.296524 
	C181.295761,139.010605 181.022888,138.724701 180.750000,138.438782 
	C180.631699,138.552002 180.404251,138.757355 180.410812,138.765137 
	C180.665497,139.066711 180.941528,139.350266 181.568649,139.296524 
z"/>
<path fill="#4DCA5C" opacity="1.000000" stroke="none" 
	d="
M66.194878,80.191658 
	C62.982597,85.211807 58.198933,81.802711 54.188866,82.547127 
	C48.085781,83.680084 46.713791,78.822937 43.960995,75.140015 
	C44.045567,74.243141 44.180405,73.719933 44.829128,72.962372 
	C45.511040,72.398651 45.679066,72.069275 45.847092,71.739906 
	C45.847092,71.739906 45.841316,71.916901 46.077805,71.788116 
	C46.502029,71.053062 46.689770,70.446785 46.877514,69.840508 
	C46.877514,69.840508 46.912216,69.968140 47.160614,69.962830 
	C47.605068,69.970879 47.801121,69.984222 47.997173,69.997559 
	C49.040020,70.268951 50.706089,71.091362 51.028961,70.726181 
	C54.133759,67.214539 57.333542,69.005913 60.878681,69.765488 
	C62.905190,70.199684 65.386833,68.666679 67.626617,67.910065 
	C70.670563,66.881821 73.440170,62.734009 76.641716,67.689125 
	C73.351295,71.483299 70.322594,74.778267 66.987991,78.202461 
	C66.492851,78.941292 66.303627,79.550896 66.141602,80.149811 
	C66.168793,80.139130 66.194878,80.191658 66.194878,80.191658 
z"/>
<path fill="#32BC46" opacity="1.000000" stroke="none" 
	d="
M186.414764,136.786026 
	C182.037003,136.694077 179.246384,137.586136 176.117874,141.295227 
	C174.151093,143.626984 167.856613,142.743423 163.582718,142.377838 
	C162.558441,142.290207 161.806290,138.537949 161.014954,136.438705 
	C160.677841,135.544434 160.561584,134.566910 159.973587,133.488312 
	C159.602203,133.349411 159.581345,133.322159 159.789429,133.013947 
	C160.331192,131.808258 160.664856,130.910782 161.467255,130.009155 
	C167.251160,130.003326 172.601059,129.623672 177.871719,130.107330 
	C183.039276,130.581543 186.410599,129.037811 188.222504,124.177231 
	C188.633972,124.877457 188.808044,125.415794 188.982132,125.954132 
	C188.216660,129.479538 187.451187,133.004929 186.414764,136.786026 
z"/>
<path fill="#20B33E" opacity="1.000000" stroke="none" 
	d="
M173.000778,156.995773 
	C173.613312,157.031036 174.225845,157.066284 175.295898,157.170746 
	C169.820053,166.784546 161.457932,173.646820 151.361969,178.932175 
	C151.636505,177.794296 152.274948,176.720398 152.956818,175.325592 
	C153.093933,173.351669 153.187622,171.698654 153.291443,169.866760 
	C155.499207,169.866760 157.722488,169.866760 159.756622,169.866760 
	C160.890213,167.920700 161.919281,166.154068 162.948364,164.387451 
	C162.508743,164.260071 162.069107,164.132690 161.313828,164.002350 
	C161.504349,158.563049 165.747482,162.005356 168.613159,161.140808 
	C169.192780,161.328751 169.278748,161.377960 169.364716,161.427170 
	C169.244156,161.284042 169.123581,161.140930 169.003021,160.997803 
	C169.002441,160.249756 169.001846,159.501694 169.001236,158.379791 
	C169.927139,157.845245 170.853073,157.684555 172.140076,157.261765 
	C172.501160,156.999664 173.000778,156.995773 173.000778,156.995773 
M158.516449,171.411209 
	C158.516449,171.411209 158.583801,171.523880 158.516449,171.411209 
z"/>
<path fill="#39C15D" opacity="1.000000" stroke="none" 
	d="
M188.922363,100.042007 
	C188.945175,99.347237 188.967972,98.652466 188.967957,97.613647 
	C189.360046,104.248940 189.774979,111.228287 189.692230,118.602249 
	C188.131943,118.995621 187.069336,118.994377 186.006348,118.562576 
	C186.072205,116.474960 185.463898,114.187920 186.321365,113.269836 
	C190.045029,109.282913 188.845779,104.586754 188.922363,100.042007 
z"/>
<path fill="#26B53D" opacity="1.000000" stroke="none" 
	d="
M47.001709,177.001694 
	C49.026402,177.999329 51.049168,178.995270 53.454624,179.993164 
	C52.874783,180.756729 52.023510,181.851517 50.928722,182.217148 
	C47.725426,183.286957 44.425091,184.066177 40.417721,185.163239 
	C41.136852,182.122803 41.713623,179.684250 42.750622,177.272659 
	C44.472424,177.198730 45.734001,177.097855 46.995579,176.996979 
	C46.995579,176.996979 46.999775,177.000000 47.001709,177.001694 
z"/>
<path fill="#25AE41" opacity="1.000000" stroke="none" 
	d="
M71.253738,178.232208 
	C74.418373,177.670135 77.828911,177.115036 81.245132,177.077454 
	C86.729897,177.017105 83.266632,181.133133 83.966301,183.641190 
	C79.825684,182.125458 75.663940,180.298431 71.253738,178.232208 
z"/>
<path fill="#22B239" opacity="1.000000" stroke="none" 
	d="
M46.845497,176.697388 
	C45.734001,177.097855 44.472424,177.198730 43.031864,177.022705 
	C42.871250,176.348969 42.889618,175.952118 43.022240,175.278793 
	C44.322803,175.467484 45.509113,175.932648 46.845497,176.697388 
z"/>
<path fill="#3CC14E" opacity="1.000000" stroke="none" 
	d="
M186.006729,118.993134 
	C187.069336,118.994377 188.131943,118.995621 189.592682,118.998611 
	C190.027451,119.445351 190.064072,119.890358 189.796906,120.670738 
	C189.493118,121.006119 189.041519,121.017952 188.700882,121.010315 
	C187.907028,121.001984 187.453827,121.001297 186.755005,120.833641 
	C186.339600,120.111214 186.169800,119.555756 186.000153,118.999992 
	C186.000290,118.999680 186.006729,118.993134 186.006729,118.993134 
z"/>
<path fill="#39C15D" opacity="1.000000" stroke="none" 
	d="
M189.041519,121.017952 
	C189.041519,121.017952 189.493118,121.006119 189.718857,120.997833 
	C189.742752,122.434242 189.540909,123.878944 189.160599,125.638885 
	C188.808044,125.415794 188.633972,124.877457 188.224670,123.844810 
	C187.998413,122.907852 188.007370,122.465202 188.234863,121.908691 
	C188.728668,121.595840 188.924713,121.336884 189.041519,121.017952 
z"/>
<path fill="#35BD48" opacity="1.000000" stroke="none" 
	d="
M35.004311,102.347870 
	C35.273750,103.056892 35.450741,104.087440 35.627731,105.117996 
	C35.498009,105.058945 35.333412,105.030365 35.248001,104.932602 
	C35.155930,104.827194 35.137993,104.657021 35.037437,104.256042 
	C34.962067,103.554459 34.936966,103.111938 35.004311,102.347870 
z"/>
<path fill="#47C857" opacity="1.000000" stroke="none" 
	d="
M176.380066,67.592392 
	C176.211624,67.880005 175.969742,67.908844 175.363937,67.970108 
	C175.000000,68.002541 174.502747,67.995743 174.252853,67.663467 
	C174.004013,66.891777 174.005066,66.452370 174.006104,66.012955 
	C174.258011,66.007027 174.509903,66.001091 175.142548,65.979729 
	C175.784393,66.420738 176.045517,66.877174 176.380066,67.592392 
z"/>
<path fill="#43C553" opacity="1.000000" stroke="none" 
	d="
M47.998562,69.998779 
	C47.801121,69.984222 47.605068,69.970879 47.116287,69.913757 
	C47.047234,69.343155 47.270908,68.816338 47.737892,68.127907 
	C47.980843,68.138931 47.980476,68.311569 47.988930,68.991867 
	C47.997742,69.499527 47.997177,69.997284 47.997177,69.997284 
	C47.997177,69.997284 47.999950,70.000000 47.998562,69.998779 
z"/>
<path fill="#43C553" opacity="1.000000" stroke="none" 
	d="
M48.847862,66.392746 
	C48.845798,66.714516 48.639648,67.211205 48.198708,67.849380 
	C48.190536,67.516464 48.417156,67.042068 48.847862,66.392746 
z"/>
<path fill="#43C553" opacity="1.000000" stroke="none" 
	d="
M34.832432,119.062714 
	C34.983028,119.319305 35.021339,119.766182 35.051682,120.549095 
	C34.935860,120.341087 34.828003,119.797050 34.832432,119.062714 
z"/>
<path fill="#43C553" opacity="1.000000" stroke="none" 
	d="
M46.598640,69.985435 
	C46.689770,70.446785 46.502029,71.053062 45.993614,71.760689 
	C45.888546,71.284813 46.104153,70.707588 46.598640,69.985435 
z"/>
<path fill="#43C553" opacity="1.000000" stroke="none" 
	d="
M45.574440,71.831589 
	C45.679066,72.069275 45.511040,72.398651 45.081375,72.840607 
	C44.980423,72.609886 45.141106,72.266579 45.574440,71.831589 
z"/>
<path fill="#DEDEDE" opacity="1.000000" stroke="none" 
	d="
M80.915146,200.777756 
	C80.699905,200.905930 80.435715,200.727631 80.121674,200.245255 
	C80.343414,200.106628 80.608208,200.283340 80.915146,200.777756 
z"/>
<path fill="#43C553" opacity="1.000000" stroke="none" 
	d="
M34.353405,112.276680 
	C34.717930,112.215637 34.803959,112.447449 34.581825,112.840149 
	C34.476543,112.933342 34.277790,112.501854 34.353405,112.276680 
z"/>
<path fill="#51CE5E" opacity="1.000000" stroke="none" 
	d="
M155.044586,49.392799 
	C155.287064,49.790394 155.285324,50.186054 155.254944,50.579506 
	C155.254074,50.590569 154.947540,50.578022 154.783539,50.576485 
	C154.787811,50.181175 154.792084,49.785870 155.044586,49.392799 
z"/>
<path fill="#FAFDFA" opacity="1.000000" stroke="none" 
	d="
M67.293900,78.073235 
	C70.322594,74.778267 73.351295,71.483299 76.688889,68.043564 
	C79.969650,67.953339 82.941521,68.007866 86.353508,68.073082 
	C88.937103,72.346756 91.080566,76.609734 93.574852,80.948898 
	C94.393898,83.184181 94.862137,85.343285 95.585999,87.771530 
	C96.183235,89.142586 96.524849,90.244499 96.887711,91.974915 
	C96.862503,93.017738 96.816055,93.432053 96.769608,93.846367 
	C96.769608,93.846367 96.829643,93.932594 96.572296,94.066605 
	C95.754501,95.360947 95.194054,96.521286 94.633606,97.681625 
	C94.633606,97.681625 94.602760,97.850258 94.332359,97.911575 
	C87.747696,104.966248 87.746101,104.967407 93.229118,112.493202 
	C93.414162,112.747200 93.700043,112.927734 94.030952,113.472130 
	C95.120796,114.867554 96.118614,115.933357 97.121162,117.318436 
	C98.183884,118.635689 99.241859,119.633675 100.496468,120.897972 
	C103.123169,123.121063 105.553253,125.077858 108.178955,127.314880 
	C111.177475,129.249786 113.896759,131.071304 116.799759,132.526245 
	C124.053391,136.161652 124.086861,136.094879 129.487793,130.317719 
	C130.984573,128.205414 132.010406,126.143700 133.481537,124.474411 
	C134.249512,123.602974 135.801086,123.422127 137.337494,123.030701 
	C139.157791,123.556190 140.639359,123.980331 142.364258,124.686615 
	C146.073120,126.608650 149.538635,128.248550 153.266647,130.044800 
	C154.220993,130.507141 154.912857,130.813126 155.803833,131.392517 
	C157.195740,132.217972 158.388550,132.770065 159.581345,133.322159 
	C159.581345,133.322159 159.602203,133.349411 159.598938,133.366913 
	C161.071075,143.841156 157.688416,150.052155 147.972107,154.731766 
	C146.108841,155.629166 144.248901,156.533447 142.181259,157.710495 
	C129.229950,157.635269 118.050957,152.255188 106.320221,146.816269 
	C105.564812,146.389542 105.274467,146.279556 104.948326,146.264114 
	C104.948326,146.264114 104.945244,146.068436 104.686646,145.788727 
	C99.871124,142.168884 95.314209,138.828751 90.757286,135.488617 
	C90.757286,135.488617 90.620514,135.334091 90.454636,134.988708 
	C89.227798,133.679199 88.166840,132.715042 87.105881,131.750900 
	C84.270630,128.270508 81.435387,124.790100 78.221367,120.817322 
	C75.828339,117.564354 73.814079,114.803772 71.799820,112.043182 
	C71.158806,110.790504 70.517792,109.537834 69.569122,107.837799 
	C69.143135,107.266365 69.024818,107.142281 68.906502,107.018204 
	C67.489189,101.314445 66.071877,95.610695 64.764221,89.147652 
	C64.848816,87.920845 64.823753,87.453316 64.798683,86.985794 
	C65.242867,84.949432 65.687057,82.913078 66.163055,80.534187 
	C66.194878,80.191658 66.168793,80.139130 66.400833,79.975677 
	C66.853210,79.232567 67.073555,78.652901 67.293900,78.073235 
z"/>
<path fill="#2FB944" opacity="1.000000" stroke="none" 
	d="
M90.516830,135.840790 
	C95.314209,138.828751 99.871124,142.168884 104.589111,145.796600 
	C103.703117,146.302933 102.656059,146.521667 101.307114,146.871201 
	C98.340675,145.248245 95.676125,143.494476 92.962189,141.046021 
	C92.276085,139.902039 91.639359,139.452728 91.002640,139.003433 
	C90.832367,138.447449 90.662094,137.891479 90.246429,137.167862 
	C90.092827,136.731140 90.184601,136.462067 90.516830,135.840790 
z"/>
<path fill="#2FB944" opacity="1.000000" stroke="none" 
	d="
M105.102112,146.440506 
	C105.274467,146.279556 105.564812,146.389542 105.965759,146.779312 
	C105.788963,146.941711 105.503540,146.825821 105.102112,146.440506 
z"/>
<path fill="#40C351" opacity="1.000000" stroke="none" 
	d="
M93.938919,113.142517 
	C93.700043,112.927734 93.414162,112.747200 93.229118,112.493202 
	C87.746101,104.967407 87.747696,104.966248 94.364365,97.832336 
	C94.945969,98.793701 95.225166,99.895622 95.466400,100.847694 
	C98.064957,100.545143 100.405449,100.041016 102.747093,100.035622 
	C127.661034,99.978226 152.575531,100.060303 177.488693,99.908867 
	C180.044708,99.893341 182.578629,98.541893 185.163223,98.004837 
	C185.485077,97.937943 186.056534,99.072296 186.757187,100.159943 
	C187.002167,101.112106 187.002304,101.554375 186.775970,102.142471 
	C186.700089,102.859367 186.850647,103.430450 186.845703,104.357697 
	C186.391861,108.653587 183.924942,109.078339 180.542633,109.063728 
	C153.966827,108.948822 127.390205,109.032822 100.814110,108.958488 
	C97.500519,108.949219 94.911629,109.572632 93.938919,113.142517 
z"/>
<path fill="#3CC14E" opacity="1.000000" stroke="none" 
	d="
M94.030952,113.472130 
	C94.911629,109.572632 97.500519,108.949219 100.814110,108.958488 
	C127.390205,109.032822 153.966827,108.948822 180.542633,109.063728 
	C183.924942,109.078339 186.391861,108.653587 187.071686,104.211876 
	C187.302963,103.138809 187.152710,102.567726 187.002441,101.996643 
	C187.002304,101.554375 187.002167,101.112106 187.002838,100.338272 
	C187.430695,100.008507 187.857727,100.010307 188.603561,100.027054 
	C188.845779,104.586754 190.045029,109.282913 186.321365,113.269836 
	C185.463898,114.187920 186.072205,116.474960 186.006348,118.562576 
	C186.006729,118.993134 186.000290,118.999680 185.600159,118.999817 
	C184.133347,118.999962 183.066666,118.999985 181.705872,118.703156 
	C179.601196,118.270866 177.790817,118.019653 175.980133,118.017563 
	C152.986786,117.990982 129.993378,118.000206 106.654785,117.946854 
	C104.873749,117.259331 103.437927,116.625267 102.000183,115.695892 
	C101.523094,115.114723 100.845955,114.469139 100.606689,114.603462 
	C99.381210,115.291504 98.268532,116.180450 97.116425,116.999168 
	C96.118614,115.933357 95.120796,114.867554 94.030952,113.472130 
z"/>
<path fill="#40C351" opacity="1.000000" stroke="none" 
	d="
M95.029343,97.735809 
	C95.194054,96.521286 95.754501,95.360947 96.582581,94.015091 
	C96.375175,95.149704 95.900131,96.469841 95.029343,97.735809 
z"/>
<path fill="#40C351" opacity="1.000000" stroke="none" 
	d="
M97.081909,93.865074 
	C96.816055,93.432053 96.862503,93.017738 97.005005,92.303696 
	C97.597313,92.280159 98.093559,92.556343 98.589806,92.832535 
	C98.191277,93.182953 97.792740,93.533363 97.081909,93.865074 
z"/>
<path fill="#4BCA5A" opacity="1.000000" stroke="none" 
	d="
M183.043365,78.912064 
	C182.687439,79.421516 182.285629,79.979187 181.883820,80.536850 
	C181.770447,80.435883 181.551025,80.256058 181.559006,80.245331 
	C181.869293,79.828041 182.200317,79.426186 182.823822,78.965240 
	C183.119034,78.908188 182.997498,78.960281 183.043365,78.912064 
z"/>
<path fill="#4BCA5A" opacity="1.000000" stroke="none" 
	d="
M173.651825,66.014984 
	C174.005066,66.452370 174.004013,66.891777 174.004227,67.660675 
	C173.066681,67.953346 172.127869,67.916527 171.189056,67.879715 
	C171.891891,67.258812 172.594711,66.637909 173.651825,66.014984 
z"/>
<path fill="#4DCA5C" opacity="1.000000" stroke="none" 
	d="
M48.164833,69.909615 
	C47.997177,69.997284 47.997742,69.499527 47.997845,69.250671 
	C48.109463,69.275192 48.220978,69.548569 48.164833,69.909615 
z"/>
<path fill="#3BC04D" opacity="1.000000" stroke="none" 
	d="
M71.517052,112.180603 
	C73.814079,114.803772 75.828339,117.564354 77.929810,120.653244 
	C76.891449,122.380676 75.765877,123.779800 74.353416,125.535538 
	C71.730965,120.489700 67.913116,122.320747 63.681416,122.929016 
	C56.901318,123.903587 49.936779,123.645721 43.048016,123.729485 
	C42.408913,123.737244 41.754158,122.457787 41.050541,121.045715 
	C40.662720,119.543129 40.331028,118.770828 39.999336,117.998535 
	C39.998867,116.611046 39.998402,115.223564 39.998043,113.420029 
	C41.807682,112.002296 43.560879,110.284348 45.437588,110.136742 
	C50.538750,109.735527 55.717903,109.691940 60.814957,110.118378 
	C63.711967,110.360764 66.495354,111.849754 69.362007,112.664429 
	C69.909096,112.819916 70.606323,112.447098 71.517052,112.180603 
z"/>
<path fill="#2FB944" opacity="1.000000" stroke="none" 
	d="
M86.968811,132.062134 
	C88.166840,132.715042 89.227798,133.679199 90.382378,134.915070 
	C88.284935,135.682724 86.093880,136.178635 83.902824,136.674545 
	C83.581673,136.191040 83.260521,135.707535 82.939377,135.224030 
	C84.236832,134.273819 85.534294,133.323593 86.968811,132.062134 
z"/>
<path fill="#43C553" opacity="1.000000" stroke="none" 
	d="
M39.662125,118.057610 
	C40.331028,118.770828 40.662720,119.543129 40.996300,120.652222 
	C40.135532,121.076843 39.272877,121.164665 38.410225,121.252487 
	C38.715122,120.207222 39.020016,119.161949 39.662125,118.057610 
z"/>
<path fill="#43C553" opacity="1.000000" stroke="none" 
	d="
M37.465660,115.609001 
	C37.349861,116.057381 37.065472,116.329384 36.781082,116.601379 
	C36.668610,116.483604 36.451897,116.269325 36.458710,116.261963 
	C36.725479,115.973770 37.012600,115.704430 37.465660,115.609001 
z"/>
<path fill="#43C554" opacity="1.000000" stroke="none" 
	d="
M62.993534,89.000702 
	C61.214447,89.000702 59.435360,89.000702 57.285919,89.000702 
	C57.499718,91.442009 57.662895,93.305260 57.894657,95.951698 
	C53.016579,95.951698 48.428314,96.189667 43.899624,95.775780 
	C42.835884,95.678558 41.439522,93.464211 41.216320,92.061523 
	C41.080002,91.204849 42.804272,89.257034 43.840267,89.143440 
	C48.929550,88.585434 54.510246,90.435287 58.611504,85.470894 
	C58.878578,85.147606 61.031414,86.382210 62.651619,87.279190 
	C62.995289,88.111053 62.994411,88.555878 62.993534,89.000702 
z"/>
<path fill="#43C554" opacity="1.000000" stroke="none" 
	d="
M39.391296,101.465927 
	C38.941460,101.349846 38.665680,101.066528 38.411194,100.765221 
	C38.404686,100.757515 38.631924,100.552383 38.750149,100.439323 
	C39.022816,100.724998 39.295479,101.010666 39.391296,101.465927 
z"/>
<path fill="#4DCA5C" opacity="1.000000" stroke="none" 
	d="
M63.256821,89.003853 
	C62.994411,88.555878 62.995289,88.111053 62.994690,87.332596 
	C63.394665,86.997078 63.796108,86.995201 64.498123,86.989563 
	C64.823753,87.453316 64.848816,87.920845 64.721825,88.708466 
	C64.219887,89.021385 63.869999,89.014191 63.256821,89.003853 
z"/>
<path fill="#3BC04D" opacity="1.000000" stroke="none" 
	d="
M68.761963,107.159821 
	C69.024818,107.142281 69.143135,107.266365 69.342155,107.634766 
	C69.154373,107.686531 68.885895,107.493980 68.761963,107.159821 
z"/>
<path fill="#35BD48" opacity="1.000000" stroke="none" 
	d="
M91.043152,139.322723 
	C91.639359,139.452728 92.276085,139.902039 92.950333,140.670944 
	C92.353134,140.541046 91.718391,140.091522 91.043152,139.322723 
z"/>
<path fill="#32BC46" opacity="1.000000" stroke="none" 
	d="
M181.391693,139.466354 
	C180.941528,139.350266 180.665497,139.066711 180.410812,138.765137 
	C180.404251,138.757355 180.631699,138.552002 180.750000,138.438782 
	C181.022888,138.724701 181.295761,139.010605 181.391693,139.466354 
z"/>
<path fill="#2AB740" opacity="1.000000" stroke="none" 
	d="
M172.911835,156.828293 
	C173.000778,156.995773 172.501160,156.999664 172.251373,157.000443 
	C172.275345,156.887756 172.549118,156.774277 172.911835,156.828293 
z"/>
<path fill="#43C553" opacity="1.000000" stroke="none" 
	d="
M66.987984,78.202461 
	C67.073555,78.652901 66.853210,79.232567 66.373642,79.986366 
	C66.303627,79.550896 66.492851,78.941292 66.987984,78.202461 
z"/>
<path fill="#39BF4A" opacity="1.000000" stroke="none" 
	d="
M182.000000,119.000000 
	C183.066666,118.999985 184.133347,118.999962 185.600006,119.000122 
	C186.169800,119.555756 186.339600,120.111214 186.865051,121.056488 
	C187.424393,121.723297 187.689590,121.915382 188.016312,122.022552 
	C188.007370,122.465202 187.998413,122.907852 187.987289,123.682922 
	C186.410599,129.037811 183.039276,130.581543 177.871719,130.107330 
	C172.601059,129.623672 167.251160,130.003326 161.266754,129.755737 
	C158.933273,130.044037 157.268997,130.581589 155.604721,131.119125 
	C154.912857,130.813126 154.220993,130.507141 153.265533,129.615646 
	C153.992142,123.392090 151.541000,120.984528 145.651779,121.413132 
	C147.698364,120.562981 149.550919,120.057648 151.408463,120.038467 
	C159.881866,119.950974 168.357315,120.054573 176.830444,119.954681 
	C178.557144,119.934334 180.276993,119.333328 182.000000,119.000000 
z"/>
<path fill="#2FB944" opacity="1.000000" stroke="none" 
	d="
M155.803833,131.392517 
	C157.268997,130.581589 158.933273,130.044037 160.798035,129.759918 
	C160.664856,130.910782 160.331192,131.808258 159.789429,133.013947 
	C158.388550,132.770065 157.195740,132.217972 155.803833,131.392517 
z"/>
<path fill="#26B53D" opacity="1.000000" stroke="none" 
	d="
M158.550125,171.467545 
	C158.583801,171.523880 158.516449,171.411209 158.550125,171.467545 
z"/>
<path fill="#2AB740" opacity="1.000000" stroke="none" 
	d="
M169.001511,160.998901 
	C169.123581,161.140930 169.244156,161.284042 169.364716,161.427170 
	C169.278748,161.377960 169.192780,161.328751 169.052338,161.141205 
	C168.997849,161.002884 169.000000,161.000000 169.001511,160.998901 
z"/>
<path fill="#32BC46" opacity="1.000000" stroke="none" 
	d="
M188.234863,121.908691 
	C187.689590,121.915382 187.424393,121.723297 187.110657,121.223450 
	C187.453827,121.001297 187.907028,121.001984 188.700882,121.010315 
	C188.924713,121.336884 188.728668,121.595840 188.234863,121.908691 
z"/>
<path fill="#3BBE4D" opacity="1.000000" stroke="none" 
	d="
M181.705872,118.703156 
	C180.276993,119.333328 178.557144,119.934334 176.830444,119.954681 
	C168.357315,120.054573 159.881866,119.950974 151.408463,120.038467 
	C149.550919,120.057648 147.698364,120.562981 145.651779,121.413132 
	C151.541000,120.984528 153.992142,123.392090 153.003052,129.459305 
	C149.538635,128.248550 146.073120,126.608650 142.756973,124.489197 
	C142.739670,122.714218 142.610168,120.302452 142.400528,120.295464 
	C140.229706,120.223122 137.028992,118.578682 136.998749,122.929367 
	C135.801086,123.422127 134.249512,123.602974 133.481537,124.474411 
	C132.010406,126.143700 130.984573,128.205414 129.425354,129.933868 
	C129.050323,129.505920 129.023895,129.248383 128.999329,128.574814 
	C129.015884,127.338715 128.791473,126.419693 129.083389,125.714363 
	C131.250061,120.479279 128.369888,119.708099 124.166931,119.990295 
	C123.186935,120.056091 122.198608,119.989220 121.214348,120.001686 
	C111.862846,120.120071 113.122757,118.827362 112.664162,127.949860 
	C110.881584,127.611282 109.432457,127.322960 107.983330,127.034637 
	C105.553253,125.077858 103.123169,123.121063 100.681519,120.747826 
	C100.669945,120.331375 101.004311,119.995689 101.388840,120.003777 
	C103.626305,119.629028 107.014107,123.234245 107.000000,118.000305 
	C129.993378,118.000206 152.986786,117.990982 175.980133,118.017563 
	C177.790817,118.019653 179.601196,118.270866 181.705872,118.703156 
z"/>
<path fill="#32BC46" opacity="1.000000" stroke="none" 
	d="
M108.178955,127.314880 
	C109.432457,127.322960 110.881584,127.611282 112.914536,128.228180 
	C115.999931,129.036835 118.501495,129.516922 121.041641,130.295364 
	C122.388191,130.062897 123.696152,129.532059 125.403496,129.000595 
	C126.867737,128.996933 127.932602,128.993881 128.997467,128.990845 
	C129.023895,129.248383 129.050323,129.505920 129.139175,130.147293 
	C124.086861,136.094879 124.053391,136.161652 116.799759,132.526245 
	C113.896759,131.071304 111.177475,129.249786 108.178955,127.314880 
z"/>
<path fill="#39BF4A" opacity="1.000000" stroke="none" 
	d="
M137.337494,123.030701 
	C137.028992,118.578682 140.229706,120.223122 142.400528,120.295464 
	C142.610168,120.302452 142.739670,122.714218 142.513641,124.207069 
	C140.639359,123.980331 139.157791,123.556190 137.337494,123.030701 
z"/>
<path fill="#3BBE4D" opacity="1.000000" stroke="none" 
	d="
M97.121162,117.318436 
	C98.268532,116.180450 99.381210,115.291504 100.606689,114.603462 
	C100.845955,114.469139 101.523094,115.114723 101.727814,115.928635 
	C101.306351,117.636353 101.155334,118.816025 101.004311,119.995689 
	C101.004311,119.995689 100.669945,120.331375 100.484894,120.481522 
	C99.241859,119.633675 98.183884,118.635689 97.121162,117.318436 
z"/>
<path fill="#43C553" opacity="1.000000" stroke="none" 
	d="
M186.775970,102.142471 
	C187.152710,102.567726 187.302963,103.138809 187.227219,103.855713 
	C186.850647,103.430450 186.700089,102.859367 186.775970,102.142471 
z"/>
<path fill="#39BF4A" opacity="1.000000" stroke="none" 
	d="
M101.388840,120.003777 
	C101.155334,118.816025 101.306351,117.636353 101.729736,116.223946 
	C103.437927,116.625267 104.873749,117.259331 106.654785,117.946854 
	C107.014107,123.234245 103.626305,119.629028 101.388840,120.003777 
z"/>
<path fill="#39BF4A" opacity="1.000000" stroke="none" 
	d="
M128.999329,128.574799 
	C127.932602,128.993881 126.867737,128.996933 125.037369,129.000107 
	C123.182259,129.332489 122.092659,129.664734 121.003059,129.996994 
	C118.501495,129.516922 115.999931,129.036835 113.247986,128.278442 
	C113.122757,118.827362 111.862846,120.120071 121.214348,120.001686 
	C122.198608,119.989220 123.186935,120.056091 124.166931,119.990295 
	C128.369888,119.708099 131.250061,120.479279 129.083389,125.714363 
	C128.791473,126.419693 129.015884,127.338715 128.999329,128.574799 
z"/>
<path fill="#3BBE4D" opacity="1.000000" stroke="none" 
	d="
M121.041641,130.295364 
	C122.092659,129.664734 123.182259,129.332489 124.637993,129.000732 
	C123.696152,129.532059 122.388191,130.062897 121.041641,130.295364 
z"/>
</svg>